<svg xmlns="http://www.w3.org/2000/svg" class="icon-login" viewBox="0 0 39.7 39.6">
		<path d="M27.6,30.6h-12c-1.1,0-2-0.9-2-2v-5c0-0.6,0.4-1,1-1c0.6,0,1,0.4,1,1v5h12v-20h-12v5c0,0.6-0.4,1-1,1c-0.6,0-1-0.4-1-1v-5c0-1.1,0.9-2,2-2h12c1.1,0,2,0.9,2,2v20C29.6,29.7,28.7,30.6,27.6,30.6z"/>
		<path d="M22.6,19.6h-16c-0.6,0-1-0.4-1-1s0.4-1,1-1h16c0.6,0,1,0.4,1,1S23.1,19.6,22.6,19.6z"/>
		<path d="M18.6,23.6c-0.3,0-0.5-0.1-0.7-0.3c-0.4-0.4-0.4-1,0-1.4l3.3-3.3l-3.3-3.3c-0.4-0.4-0.4-1,0-1.4c0.4-0.4,1-0.4,1.4,0l4,4c0.4,0.4,0.4,1,0,1.4l-4,4C19.1,23.5,18.8,23.6,18.6,23.6z"/>
</svg>
