<?xml version="1.0" encoding="UTF-8"?>
<svg width="24px" height="24px" viewBox="0 0 24 24" version="1.1" xmlns="http://www.w3.org/2000/svg" xmlns:xlink="http://www.w3.org/1999/xlink">
    <path d="M22.0098,0 C23.1128,0 24.0098,0.897 24.0098,2 L24.0098,22 C24.0098,23.103 23.1128,24 22.0098,24 L9.9998,24 C8.8968,24 7.9998,23.103 7.9998,22 L7.9998,17 C7.9998,16.448 8.4478,16 8.9998,16 C9.5518,16 9.9998,16.448 9.9998,17 L9.9998,22 L22.0098,22 L22.0098,2 L9.9998,2 L9.9998,7 C9.9998,7.552 9.5518,8 8.9998,8 C8.4478,8 7.9998,7.552 7.9998,7 L7.9998,2 C7.9998,0.897 8.8968,0 9.9998,0 L22.0098,0 Z M12.293,15.293 L14.586,13 L1,13 C0.448,13 1.77635684e-15,12.552 1.77635684e-15,12 C1.77635684e-15,11.448 0.448,11 1,11 L14.586,11 L12.293,8.707 C11.902,8.317 11.902,7.683 12.293,7.293 C12.684,6.902 13.316,6.902 13.707,7.293 L17.707,11.293 C17.799,11.385 17.872,11.495 17.923,11.618 C18.024,11.862 18.024,12.138 17.923,12.382 C17.872,12.505 17.799,12.615 17.707,12.707 L13.707,16.707 C13.512,16.902 13.256,17 13,17 C12.744,17 12.488,16.902 12.293,16.707 C11.902,16.317 11.902,15.683 12.293,15.293 Z"></path>
</svg>